<?xml version="1.0" encoding="UTF-8"?>
<svg xmlns="http://www.w3.org/2000/svg" viewBox="0 0 750 500">
  <defs>
    <style>
      .cls-1, .cls-2 {
        fill: #fff;
      }

      .cls-3 {
        stroke: #ff725e;
        stroke-miterlimit: 10;
      }

      .cls-3, .cls-4, .cls-5 {
        fill: none;
      }

      .cls-6 {
        letter-spacing: -.01em;
      }

      .cls-7 {
        letter-spacing: -.03em;
      }

      .cls-2 {
        fill-rule: evenodd;
      }

      .cls-8 {
        fill: #f5f5f5;
      }

      .cls-9 {
        fill: #455a64;
      }

      .cls-10 {
        fill: #ffbf9d;
      }

      .cls-11 {
        letter-spacing: -.01em;
      }

      .cls-12 {
        letter-spacing: -.06em;
      }

      .cls-4 {
        stroke: #fff;
      }

      .cls-4, .cls-5 {
        stroke-linecap: round;
        stroke-linejoin: round;
      }

      .cls-13 {
        fill: #e0e0e0;
      }

      .cls-14 {
        fill: #ff9a6c;
      }

      .cls-5 {
        stroke: #455a64;
      }

      .cls-15 {
        fill: #ff725e;
      }

      .cls-16 {
        font-size: 11.04px;
      }

      .cls-16, .cls-17, .cls-18 {
        font-family: Montserrat-ExtraBold, Montserrat;
        font-weight: 700;
      }

      .cls-16, .cls-17, .cls-18, .cls-19 {
        fill: #263238;
      }

      .cls-20 {
        opacity: .3;
      }

      .cls-21 {
        letter-spacing: -.02em;
      }

      .cls-22 {
        letter-spacing: -.01em;
      }

      .cls-17 {
        font-size: 10.35px;
      }

      .cls-23 {
        letter-spacing: -.05em;
      }

      .cls-18 {
        font-size: 8.73px;
      }

      .cls-24 {
        letter-spacing: -.03em;
      }

      .cls-25 {
        letter-spacing: -.02em;
      }
    </style>
  </defs>
  <g id="Background_Complete" data-name="Background Complete">
    <g>
      <rect class="cls-8" x="79.39" y="132.88" width="60.62" height="89.94" transform="translate(-69.05 286.09) rotate(-89.53)"/>
      <path class="cls-13" d="M155.19,148.64s-.27,.3-.84,.8c-.64,.55-1.47,1.27-2.52,2.17-2.28,1.92-5.47,4.6-9.38,7.88-8.03,6.65-19.03,15.75-31.21,25.84l-.26,.21-.26-.21c-.2-.16-.41-.34-.63-.51-12.39-10.12-23.61-19.28-31.81-25.98-3.99-3.31-7.25-6.01-9.58-7.95-1.07-.91-1.93-1.64-2.58-2.19-.58-.51-.88-.79-.86-.81,.02-.02,.35,.21,.97,.68,.67,.52,1.56,1.21,2.68,2.07,2.37,1.88,5.68,4.52,9.74,7.74,8.24,6.65,19.51,15.74,31.96,25.79,.22,.17,.43,.35,.63,.51h-.52c12.24-10.01,23.29-19.05,31.37-25.65,3.98-3.2,7.22-5.82,9.54-7.68,1.09-.85,1.96-1.54,2.62-2.06,.6-.46,.93-.7,.95-.67Z"/>
      <path class="cls-13" d="M64.76,208.53c-.17-.15,6.66-8.4,15.26-18.43,8.6-10.04,15.71-18.05,15.88-17.9,.17,.15-6.66,8.4-15.26,18.44-8.6,10.03-15.7,18.05-15.88,17.9Z"/>
      <path class="cls-13" d="M125.8,171.67c.18-.14,6.79,8.17,14.77,18.54,7.98,10.38,14.31,18.91,14.13,19.04-.18,.14-6.79-8.16-14.77-18.55-7.98-10.38-14.3-18.9-14.13-19.04Z"/>
    </g>
    <g>
      <rect class="cls-8" x="626.81" y="87.84" width="36.93" height="54.79" transform="translate(524.76 759.54) rotate(-89.53)"/>
      <path class="cls-13" d="M673,97.44s-.17,.18-.51,.49c-.39,.33-.9,.77-1.54,1.32-1.39,1.17-3.33,2.8-5.71,4.8-4.89,4.05-11.6,9.6-19.02,15.74l-.16,.13-.16-.13c-.12-.1-.25-.2-.38-.31-7.55-6.17-14.38-11.75-19.38-15.83-2.43-2.02-4.42-3.66-5.84-4.84-.65-.55-1.18-1-1.57-1.34-.36-.31-.54-.48-.53-.49,.01-.01,.21,.13,.59,.41,.41,.32,.95,.74,1.63,1.26,1.44,1.15,3.46,2.75,5.94,4.72,5.02,4.05,11.88,9.59,19.47,15.71,.13,.11,.26,.21,.38,.31h-.31c7.46-6.1,14.19-11.6,19.11-15.63,2.42-1.95,4.4-3.54,5.81-4.68,.66-.52,1.19-.94,1.6-1.25,.37-.28,.57-.42,.58-.41Z"/>
      <path class="cls-13" d="M617.9,133.92c-.1-.09,4.06-5.12,9.29-11.23,5.24-6.11,9.57-11,9.67-10.91,.1,.09-4.06,5.12-9.3,11.23-5.24,6.11-9.57,11-9.67,10.91Z"/>
      <path class="cls-13" d="M655.09,111.47c.11-.08,4.14,4.98,9,11.3,4.86,6.32,8.72,11.52,8.61,11.6-.11,.08-4.14-4.97-9-11.3-4.86-6.32-8.71-11.52-8.61-11.6Z"/>
    </g>
    <g>
      <path class="cls-8" d="M560.29,404.93v45.14h-7.54v4.9h7.54v30.21h140.88v-27.49h-10.44v-5.99h10.44v-8.98h4.64v-4.08h-5.51v-33.71h-140.01Z"/>
      <polygon class="cls-13" points="663.76 405.06 663.76 484.68 701.17 484.68 701.17 457.19 690.74 457.19 690.74 451.7 701.17 451.89 701.17 442.91 705.9 442.91 705.81 438.27 700.3 438.13 700.3 404.93 663.76 405.06"/>
      <path class="cls-13" d="M666.42,454.32c0,.28-25.49,.5-56.93,.5s-56.94-.22-56.94-.5,25.49-.5,56.94-.5,56.93,.22,56.93,.5Z"/>
      <path class="cls-13" d="M666.42,449.73c0,.28-25.49,.5-56.93,.5s-56.94-.22-56.94-.5,25.49-.5,56.94-.5,56.93,.22,56.93,.5Z"/>
      <path class="cls-13" d="M673.74,437.39c0,.28-25.49,.5-56.93,.5s-56.94-.22-56.94-.5,25.49-.5,56.94-.5,56.93,.22,56.93,.5Z"/>
      <path class="cls-13" d="M674.44,471.02c0,.28-25.49,.5-56.93,.5s-56.94-.22-56.94-.5,25.49-.5,56.94-.5,56.93,.22,56.93,.5Z"/>
    </g>
  </g>
  <g id="Desk">
    <path class="cls-19" d="M720.1,481.41c0,.14-154.52,.26-345.09,.26s-345.12-.12-345.12-.26,154.49-.26,345.12-.26,345.09,.12,345.09,.26Z"/>
  </g>
  <g id="Screen">
    <g>
      <path class="cls-1" d="M494.79,166.92h202.24c6.59,0,11.94,5.35,11.94,11.94v146.58c0,10.37-8.42,18.78-18.78,18.78h-191.21c-10.37,0-18.78-8.42-18.78-18.78V181.51c0-8.05,6.54-14.59,14.59-14.59Z"/>
      <path class="cls-13" d="M494.79,166.92h202.24c6.59,0,11.94,5.35,11.94,11.94v12.9h-228.77v-10.25c0-8.05,6.54-14.59,14.59-14.59Z"/>
      <path class="cls-1" d="M496.44,179.75c0,1.78-1.44,3.23-3.23,3.23s-3.23-1.44-3.23-3.23,1.44-3.23,3.23-3.23,3.23,1.44,3.23,3.23Z"/>
      <path class="cls-1" d="M507.13,179.75c0,1.78-1.44,3.23-3.23,3.23s-3.23-1.44-3.23-3.23,1.44-3.23,3.23-3.23,3.23,1.44,3.23,3.23Z"/>
      <path class="cls-1" d="M517.81,179.75c0,1.78-1.44,3.23-3.23,3.23s-3.23-1.44-3.23-3.23,1.44-3.23,3.23-3.23,3.23,1.44,3.23,3.23Z"/>
      <text class="cls-17" transform="translate(556.49 215.48)"><tspan class="cls-7" x="0" y="0">T</tspan><tspan x="6.3" y="0">as</tspan><tspan class="cls-25" x="18.47" y="0">k</tspan><tspan x="25.37" y="0">s</tspan></text>
      <path class="cls-13" d="M545.27,344.23c-.14,0-.26-33.88-.26-75.66s.12-75.67,.26-75.67,.26,33.87,.26,75.67-.12,75.66-.26,75.66Z"/>
      <rect class="cls-13" x="493.22" y="215.48" width="40.92" height="5.28"/>
      <rect class="cls-13" x="556.04" y="229.88" width="108.61" height="5.28"/>
      <rect class="cls-13" x="493.22" y="230.96" width="16.28" height="5.28"/>
      <rect class="cls-13" x="493.22" y="245.88" width="16.28" height="5.28"/>
      <g>
        <rect class="cls-15" x="679.9" y="227.76" width="9.52" height="9.52" rx="1.28" ry="1.28"/>
        <polyline class="cls-4" points="681.78 232.48 684.01 234.49 688.03 230.56"/>
      </g>
      <rect class="cls-13" x="556.04" y="250.29" width="108.61" height="5.28"/>
      <rect class="cls-3" x="679.9" y="248.17" width="9.52" height="9.52" rx="1.28" ry="1.28"/>
      <rect class="cls-13" x="556.04" y="270.69" width="108.61" height="5.28"/>
      <rect class="cls-3" x="679.9" y="268.57" width="9.52" height="9.52" rx="1.28" ry="1.28"/>
      <rect class="cls-13" x="556.04" y="291.09" width="108.61" height="5.28"/>
      <rect class="cls-3" x="679.9" y="288.97" width="9.52" height="9.52" rx="1.28" ry="1.28"/>
      <rect class="cls-13" x="556.04" y="311.5" width="108.61" height="5.28"/>
      <rect class="cls-3" x="679.9" y="309.38" width="9.52" height="9.52" rx="1.28" ry="1.28"/>
      <path class="cls-19" d="M690.19,344.22s.17-.02,.51-.04c.34-.03,.84-.04,1.51-.1,1.32-.19,3.31-.5,5.69-1.59,2.34-1.09,5.14-2.92,7.37-6.03,1.11-1.54,2.1-3.36,2.76-5.45,.14-.53,.27-1.07,.41-1.62,.12-.55,.18-1.12,.28-1.7,.13-1.16,.16-2.36,.14-3.6-.02-19.86-.05-48.58-.08-84.08,0-17.75-.02-37.19-.03-58.06-.02-1.3,.04-2.63-.04-3.91-.09-1.29-.39-2.56-.89-3.77-1.03-2.39-2.88-4.45-5.2-5.72-1.17-.63-2.44-1.05-3.76-1.26-1.31-.22-2.67-.14-4.05-.16-2.74,0-5.5,0-8.28,0-11.12,0-22.56,0-34.29,.01-46.93,0-98.53,.01-152.69,.02-3.38,.08-6.82-.35-9.91,.96-3.08,1.19-5.74,3.44-7.34,6.32-.8,1.43-1.36,3-1.64,4.61-.31,1.6-.21,3.27-.22,4.93,0,3.32,0,6.63,0,9.93,0,13.19,0,26.19,0,38.96,0,25.54-.01,50.18-.02,73.65,0,5.87,0,11.66,0,17.38,0,.71-.02,1.43,.03,2.13,.03,.7,.05,1.41,.19,2.1l.16,1.04,.26,1.02c.15,.69,.41,1.33,.64,1.99,.99,2.6,2.61,4.94,4.62,6.8,2.01,1.87,4.41,3.28,6.98,4.12,.65,.19,1.31,.35,1.96,.52,.67,.09,1.33,.22,2,.29,1.33,.09,2.69,.1,4.04,.09,5.39,0,10.7,0,15.92,0,20.87,.01,40.31,.02,58.06,.03,35.49,.03,64.21,.06,84.07,.08,9.92,.02,17.63,.04,22.86,.05,2.61,.01,4.6,.02,5.94,.03,1.34,0,2.03,.03,2.03,.03,0,0-.69,.02-2.03,.03-1.35,0-3.34,.01-5.94,.03-5.23,.01-12.94,.03-22.86,.05-19.86,.02-48.58,.05-84.07,.08-17.75,0-37.19,.02-58.06,.03-5.22,0-10.53,0-15.92,0-1.35,0-2.7,0-4.08-.09-.68-.06-1.36-.2-2.04-.29-.67-.17-1.34-.33-2.01-.53-2.64-.85-5.1-2.3-7.16-4.21-2.06-1.91-3.72-4.3-4.74-6.97-.24-.67-.51-1.34-.66-2.04l-.27-1.04-.16-1.06c-.14-.71-.16-1.43-.19-2.15-.05-.72-.02-1.43-.03-2.15,0-5.72,0-11.51,0-17.38,0-23.47,0-48.11-.02-73.65,0-12.77,0-25.77,0-38.96,0-3.3,0-6.61,0-9.93,.02-1.65-.09-3.34,.23-5.02,.29-1.67,.86-3.29,1.7-4.78,1.65-2.98,4.41-5.32,7.6-6.55,1.6-.61,3.3-.97,5.02-.98,1.7-.03,3.38,0,5.08-.01,54.16,0,105.75,.01,152.69,.02,11.73,0,23.17,0,34.29,.01,2.78,0,5.54,0,8.28,0,1.36,.01,2.74-.06,4.12,.17,1.37,.22,2.69,.66,3.9,1.31,2.41,1.33,4.32,3.46,5.39,5.94,.52,1.25,.82,2.58,.92,3.91,.08,1.34,.02,2.63,.04,3.94-.01,20.87-.02,40.31-.03,58.06-.03,35.49-.06,64.22-.08,84.08,0,1.24-.03,2.46-.16,3.62-.1,.58-.16,1.16-.29,1.71-.14,.55-.29,1.1-.42,1.63-.67,2.11-1.68,3.94-2.81,5.49-2.26,3.13-5.1,4.95-7.46,6.03-2.4,1.08-4.4,1.37-5.73,1.54-1.34,.08-2.02,.09-2.02,.09Z"/>
    </g>
  </g>
  <g id="Device">
    <g>
      <g>
        <g>
          <path class="cls-19" d="M435.35,365.76l-107.84-.07c-12.97,0-23.48-11.06-23.48-24.69l.05-284.11c0-13.64,10.53-24.69,23.5-24.68l107.84,.07c12.97,0,23.48,11.06,23.48,24.69l-.05,284.11c0,13.64-10.53,24.69-23.5,24.68Z"/>
          <path class="cls-1" d="M435.32,42.33h-20.91c-2.8-.01-5.08,2.48-5.08,5.56v3.99c0,3.08-2.28,5.58-5.08,5.57l-40.75-.03c-2.8,0-5.08-2.5-5.08-5.58v-3.99c0-3.08-2.27-5.58-5.08-5.58h-7.35s-18.3-.02-18.3-.02c-9.09,0-16.46,7.73-16.46,17.29l-.05,277.31c0,9.55,7.36,17.29,16.44,17.29l107.62,.07c9.09,0,16.46-7.73,16.46-17.28l.05-277.31c0-9.55-7.36-17.29-16.44-17.29Z"/>
        </g>
        <g>
          <path class="cls-13" d="M340.59,328.04v6.79c0,.59-.65,.95-1.14,.63l-5.34-3.39c-.46-.29-.46-.97,0-1.26l5.34-3.39c.5-.32,1.14,.04,1.14,.63Z"/>
          <path class="cls-13" d="M384.45,331.38c0,2.59-2.1,4.69-4.68,4.69s-4.68-2.1-4.68-4.69,2.1-4.69,4.68-4.69,4.68,2.1,4.68,4.69Z"/>
          <path class="cls-13" d="M419.92,327.3h4.9c1.03,0,1.87,.84,1.87,1.87v4.92c0,1.03-.84,1.87-1.87,1.87h-4.9c-1.03,0-1.87-.84-1.87-1.87v-4.92c0-1.03,.84-1.87,1.87-1.87Z"/>
        </g>
      </g>
      <g>
        <path class="cls-19" d="M333.13,79.98c-1.12,0-2.55-.03-3.97-.05-1.7-.03-3.4-.06-4.58-.05h0c-.29,0-.53-.24-.53-.53,0-.3,.23-.54,.53-.54,1.19-.01,2.9,.02,4.61,.05,1.7,.03,3.4,.06,4.58,.05h0c.29,0,.53,.24,.53,.53,0,.3-.23,.54-.53,.54-.2,0-.41,0-.64,0Z"/>
        <path class="cls-19" d="M327.83,83.54c-.15,0-.29-.06-.4-.18l-3.25-3.67c-.18-.21-.18-.52,.01-.72l3.17-3.33c.2-.21,.54-.22,.76-.02,.21,.2,.22,.54,.02,.76l-2.84,2.98,2.93,3.3c.2,.22,.18,.56-.04,.75-.1,.09-.23,.13-.35,.13Z"/>
      </g>
      <g>
        <circle class="cls-19" cx="439.03" cy="74.28" r="1.66"/>
        <path class="cls-19" d="M440.69,79.51c0,.92-.74,1.66-1.66,1.66s-1.66-.74-1.66-1.66,.74-1.66,1.66-1.66,1.66,.74,1.66,1.66Z"/>
        <path class="cls-19" d="M440.69,84.74c0,.92-.74,1.66-1.66,1.66s-1.66-.74-1.66-1.66,.74-1.66,1.66-1.66,1.66,.74,1.66,1.66Z"/>
      </g>
      <text class="cls-16" transform="translate(349.48 83.54)"><tspan class="cls-6" x="0" y="0">F</tspan><tspan x="6.96" y="0">ocus Mode</tspan></text>
      <path class="cls-13" d="M451.72,105.55c0,.14-31.36,.26-70.03,.26s-70.04-.12-70.04-.26,31.35-.26,70.04-.26,70.03,.12,70.03,.26Z"/>
      <rect class="cls-8" x="321.65" y="122.99" width="119.64" height="30.06" rx="13.12" ry="13.12"/>
      <text class="cls-18" transform="translate(355.08 141.09) scale(1.01 1)"><tspan class="cls-24" x="0" y="0">T</tspan><tspan x="5.27" y="0">wi</tspan><tspan class="cls-22" x="16.35" y="0">t</tspan><tspan class="cls-21" x="20.15" y="0">t</tspan><tspan x="23.91" y="0">er</tspan></text>
      <circle class="cls-9" cx="340.05" cy="138.02" r="8.46" transform="translate(-26.93 141.42) rotate(-22.62)"/>
      <g>
        <rect class="cls-15" x="415.9" y="133.95" width="10.6" height="10.6" rx="1.28" ry="1.28"/>
        <polyline class="cls-4" points="417.99 139.2 420.47 141.44 424.95 137.06"/>
      </g>
      <rect class="cls-8" x="321.65" y="159.12" width="119.64" height="30.06" rx="13.12" ry="13.12"/>
      <text class="cls-18" transform="translate(355.08 178.22) scale(1.01 1)"><tspan x="0" y="0">Doc</tspan></text>
      <rect class="cls-3" x="415.9" y="170.09" width="10.6" height="10.6" rx="1.28" ry="1.28"/>
      <rect class="cls-8" x="321.65" y="195.26" width="119.64" height="30.06" rx="13.12" ry="13.12"/>
      <text class="cls-18" transform="translate(355.08 214.35) scale(1.01 1)"><tspan x="0" y="0">Gmail</tspan></text>
      <g>
        <rect class="cls-15" x="415.9" y="206.22" width="10.6" height="10.6" rx="1.28" ry="1.28"/>
        <polyline class="cls-4" points="417.99 211.47 420.47 213.71 424.95 209.33"/>
      </g>
      <rect class="cls-8" x="321.65" y="231.39" width="119.64" height="30.06" rx="13.12" ry="13.12"/>
      <text class="cls-18" transform="translate(355.08 249.49) scale(1.01 1)"><tspan x="0" y="0">Whatsapp</tspan></text>
      <circle class="cls-9" cx="340.05" cy="246.42" r="9.08" transform="translate(-73.22 171.8) rotate(-25.69)"/>
      <circle class="cls-9" cx="340.05" cy="212.04" r="9.08" transform="translate(-58.31 168.4) rotate(-25.69)"/>
      <circle class="cls-9" cx="339.7" cy="174.15" r="9.08" transform="translate(-23.65 291.21) rotate(-45)"/>
      <g>
        <rect class="cls-15" x="415.9" y="242.35" width="10.6" height="10.6" rx="1.28" ry="1.28"/>
        <polyline class="cls-4" points="417.99 247.6 420.47 249.84 424.95 245.46"/>
      </g>
      <rect class="cls-8" x="321.65" y="267.52" width="119.64" height="30.06" rx="13.12" ry="13.12"/>
      <text class="cls-18" transform="translate(355.08 285.62) scale(1.01 1)"><tspan class="cls-12" x="0" y="0">Y</tspan><tspan x="5.52" y="0">o</tspan><tspan class="cls-23" x="11.34" y="0">u</tspan><tspan class="cls-11" x="16.92" y="0">T</tspan><tspan x="22.37" y="0">ube</tspan></text>
      <g>
        <rect class="cls-15" x="415.9" y="278.48" width="10.6" height="10.6" rx="1.28" ry="1.28"/>
        <polyline class="cls-4" points="417.99 283.73 420.47 285.97 424.95 281.59"/>
      </g>
      <path class="cls-1" d="M335.97,140.58c.74,.48,1.62,.75,2.57,.75,3.11,0,4.87-2.63,4.76-4.98,.33-.24,.61-.53,.84-.87-.3,.13-.62,.22-.96,.26,.35-.21,.61-.54,.74-.93-.32,.19-.68,.33-1.06,.41-.31-.33-.74-.53-1.22-.53-1.08,0-1.88,1.01-1.63,2.06-1.39-.07-2.63-.74-3.45-1.75-.44,.75-.23,1.74,.52,2.24-.27,0-.53-.08-.76-.21-.02,.78,.54,1.5,1.34,1.66-.24,.06-.49,.08-.76,.03,.21,.67,.83,1.15,1.56,1.16-.7,.55-1.59,.8-2.48,.69Z"/>
      <g>
        <path class="cls-2" d="M345.01,246.17c-.07-2.62-2.22-4.71-4.87-4.71s-4.76,2.05-4.87,4.63c0,.07,0,.14,0,.21,0,.92,.26,1.77,.7,2.5l-.88,2.59,2.7-.86c.7,.38,1.5,.6,2.36,.6,2.69,0,4.87-2.17,4.87-4.84,0-.04,0-.08,0-.12Zm-4.87,4.19c-.83,0-1.61-.25-2.25-.67l-1.57,.5,.51-1.51c-.49-.67-.78-1.49-.78-2.38,0-.13,0-.26,.02-.39,.2-2.06,1.95-3.67,4.08-3.67s3.92,1.65,4.08,3.75c0,.11,.01,.21,.01,.32,0,2.24-1.84,4.07-4.1,4.07Z"/>
        <path class="cls-2" d="M342.37,247.27c-.12-.06-.71-.35-.82-.39-.11-.04-.19-.06-.27,.06-.08,.12-.31,.39-.38,.46-.07,.08-.14,.09-.26,.03-.12-.06-.5-.18-.96-.59-.35-.31-.6-.7-.66-.82-.07-.12,0-.18,.05-.24,.05-.05,.12-.14,.18-.21,.02-.02,.03-.04,.04-.06,.03-.04,.05-.08,.08-.14,.04-.08,.02-.15,0-.21s-.27-.64-.37-.88c-.1-.24-.2-.2-.27-.2s-.15-.01-.23-.01-.21,.03-.32,.15c-.11,.12-.42,.41-.42,.99,0,.14,.03,.27,.06,.4,.12,.42,.38,.76,.43,.82,.06,.08,.83,1.31,2.04,1.79,1.22,.47,1.22,.31,1.44,.29,.22-.02,.71-.29,.81-.56,.1-.28,.1-.51,.07-.56-.03-.05-.11-.08-.23-.14Z"/>
      </g>
      <g>
        <path class="cls-1" d="M335.49,172.82h8.43c.8,0,.81-1.25,0-1.25h-8.43c-.8,0-.81,1.25,0,1.25h0Z"/>
        <path class="cls-1" d="M335.49,175.26h8.43c.8,0,.81-1.25,0-1.25h-8.43c-.8,0-.81,1.25,0,1.25h0Z"/>
        <path class="cls-1" d="M335.49,177.7h4.92c.8,0,.81-1.25,0-1.25h-4.92c-.8,0-.81,1.25,0,1.25h0Z"/>
      </g>
      <circle class="cls-9" cx="340.05" cy="282.87" r="9.08"/>
      <path class="cls-1" d="M338.34,285.21v-5.31c0-.26,.28-.42,.5-.29l4.75,2.68c.23,.13,.23,.46,0,.59l-4.75,2.64c-.23,.13-.5-.04-.5-.3Z"/>
      <g>
        <rect class="cls-1" x="334.29" y="207.97" width="11.34" height="8.29" rx="1.14" ry="1.14"/>
        <polyline class="cls-5" points="335.52 215.2 335.52 209.13 340.14 211.74 344.42 209.13 344.42 215.2"/>
      </g>
    </g>
  </g>
  <g id="Focus_Icon" data-name="Focus Icon">
    <g>
      <circle class="cls-8" cx="244.02" cy="76.02" r="32.65" transform="translate(-10.31 101.3) rotate(-22.98)"/>
      <circle class="cls-13" cx="244.02" cy="76.02" r="26.55" transform="translate(-10.64 97.78) rotate(-22.19)"/>
      <circle class="cls-19" cx="244.02" cy="76.02" r="18.99" transform="translate(-10.4 100.4) rotate(-22.78)"/>
      <circle class="cls-13" cx="244.02" cy="76.02" r="7.28" transform="translate(129.97 304.75) rotate(-80.8)"/>
    </g>
  </g>
  <g id="Notifications_Icon" data-name="Notifications Icon">
    <g>
      <circle class="cls-8" cx="518.96" cy="95.37" r="47.74" transform="translate(287.67 569.62) rotate(-74.42)"/>
      <path class="cls-9" d="M545.02,119.24l-7.05-8.1v-19.4c0-9.51-7-17.38-16.12-18.77v-8.11s-5.12,0-5.12,0v8.03c-9.44,1.1-16.77,9.13-16.76,18.87v18.46s-7.09,9.04-7.09,9.04h19.35c.8,2,2.37,3.71,4.37,4.54,2.81,1.18,6.27,.58,8.53-1.47,.93-.84,1.62-1.92,2.06-3.09h17.84Z"/>
      <g>
        <path class="cls-15" d="M554.6,82.52c0,6.69-5.42,12.11-12.11,12.11s-12.11-5.42-12.11-12.11,5.42-12.11,12.11-12.11,12.11,5.42,12.11,12.11Z"/>
        <g>
          <rect class="cls-1" x="541.57" y="76.69" width="2.43" height="10.87" transform="translate(217.06 -359.76) rotate(45)"/>
          <rect class="cls-1" x="541.57" y="76.69" width="2.43" height="10.87" transform="translate(100.92 407.88) rotate(-45)"/>
        </g>
      </g>
    </g>
  </g>
  <g id="Plant">
    <g>
      <g>
        <path class="cls-19" d="M100.72,435.6s-6.84-46.99-6.27-74.33c.57-27.34-.03-58.1-.03-58.1h3.15s-2.13,54.27,.19,87c2.32,32.71,8.43,45.43,8.43,45.43h-5.47"/>
        <path class="cls-9" d="M121.08,250.29c-.63-1.61-1.41-3.28-2.87-4.2-2-1.27-4.62-.74-6.85,.05-9.52,3.37-17.95,21.11-21.8,30.44l12.63,42.57c22.81-21.16,26.75-48.91,18.88-68.86Z"/>
        <path class="cls-19" d="M117.48,247.81s-.05,.2-.18,.56c-.16,.41-.37,.92-.62,1.55-.55,1.34-1.33,3.29-2.26,5.71-1.86,4.83-4.23,11.59-6.35,19.21-2.11,7.62-3.56,14.63-4.46,19.74-.45,2.55-.79,4.62-1,6.05-.11,.67-.2,1.21-.27,1.65-.07,.38-.11,.57-.13,.57-.02,0,0-.2,.03-.58,.05-.44,.1-.99,.17-1.66,.15-1.44,.44-3.52,.84-6.09,.81-5.13,2.21-12.17,4.32-19.81,2.12-7.63,4.56-14.39,6.51-19.2,.97-2.41,1.8-4.34,2.42-5.65,.29-.61,.52-1.12,.71-1.51,.17-.34,.26-.52,.28-.51Z"/>
        <path class="cls-9" d="M96.59,329.36c-11.84-6.54-18.82-18.85-19.47-32.37-.46-9.45,2.45-18.72,5.74-27.59,.29-.77,.62-1.6,1.34-2,.99-.56,2.24-.06,3.23,.5,8.61,4.9,13.82,14.24,16.59,23.75,1.85,6.33,2.8,13,1.95,19.53-.85,6.53-4.59,13.64-9.37,18.18"/>
        <path class="cls-19" d="M96.59,329.36s-.03-.2-.05-.57c0-.43-.02-.97-.03-1.63,0-1.42-.06-3.47-.18-6-.23-5.06-.89-12.04-2.2-19.67-1.31-7.63-2.91-14.45-4.08-19.39-.58-2.41-1.05-4.39-1.4-5.84-.15-.65-.27-1.17-.36-1.59-.08-.37-.11-.56-.09-.56s.08,.18,.19,.54c.12,.41,.27,.93,.46,1.57,.39,1.37,.93,3.35,1.56,5.81,1.27,4.92,2.92,11.74,4.24,19.39,1.31,7.65,1.92,14.66,2.05,19.74,.07,2.54,.07,4.6,.01,6.02-.03,.66-.05,1.2-.07,1.63-.02,.37-.04,.57-.06,.57Z"/>
        <g class="cls-20">
          <path d="M96.59,329.36c-11.84-6.54-18.82-18.85-19.47-32.37-.46-9.45,2.45-18.72,5.74-27.59,.29-.77,.62-1.6,1.34-2,.99-.56,2.24-.06,3.23,.5,8.61,4.9,13.82,14.24,16.59,23.75,1.85,6.33,2.8,13,1.95,19.53-.85,6.53-4.59,13.64-9.37,18.18"/>
        </g>
        <path class="cls-9" d="M109.95,401.26c11.66,2.56,21.25,10.78,32.5,14.78,7.44,2.64,15.85,3.58,21.79,8.78-1.43-3.6-4.8-6-8.09-8.05-9.25-5.78-19.15-10.5-29.46-14.06-5.29-1.83-11.03-3.35-16.42-1.85"/>
        <path class="cls-9" d="M93.1,411.65c-14.6-.24-29.97-12.66-44.5-13.4,15.2-4.91,36.98-.9,44.5,13.4"/>
        <path class="cls-9" d="M98.8,376.63c7.41-2.67,15.55-2.8,23.34-1.59,7.79,1.21,15.31,3.71,22.78,6.19-.75-5.06-4.85-8.87-8.7-12.24-2.9-2.54-5.82-5.09-9.15-7.03-3.33-1.94-7.12-3.26-10.97-3.1-4.64,.2-9.06,2.59-12.11,6.1-3.05,3.51-4.68,7.04-5.19,11.66"/>
        <path class="cls-9" d="M68.84,360.51c-9.19-7.85-23.11-7.08-35.19-6.81,18.57,8.88,38.58,21.05,54.57,34,.49-8.54-7.78-17.29-19.38-27.2Z"/>
        <g class="cls-20">
          <path d="M68.84,360.51c-9.19-7.85-23.11-7.08-35.19-6.81,18.57,8.88,38.58,21.05,54.57,34,.49-8.54-7.78-17.29-19.38-27.2Z"/>
        </g>
        <path class="cls-9" d="M102.93,349.68c4.62-3.08,9.29-6.02,14.13-8.21,4.84-2.2,9.35-5.7,14.02-8.23,6.06-3.28,11.3-7.84,16.86-11.9,5.56-4.07,11.67-7.74,18.47-8.81-5.55-1.14-11.34-.52-16.81,.97s-10.66,3.83-15.82,6.15c-7.17,3.23-14.46,6.54-20.32,11.78-5.86,5.24-11.16,10.42-10.54,18.25"/>
        <path class="cls-19" d="M142.18,411.65s-.17-.05-.46-.2c-.34-.18-.77-.4-1.27-.66-1.1-.59-2.68-1.45-4.66-2.45-.98-.52-2.07-1.06-3.26-1.62-1.17-.58-2.44-1.16-3.79-1.74-2.7-1.15-5.71-2.35-8.99-3.13-3.27-.8-6.53-.98-9.36-.24-1.43,.35-2.77,.69-3.97,1.18-1.2,.49-2.27,1.06-3.2,1.64-1.87,1.18-3.18,2.43-4.02,3.32-.85,.91-1.26,1.46-1.29,1.43-.01-.01,.08-.16,.26-.43,.18-.27,.48-.66,.88-1.14,.81-.95,2.1-2.26,3.98-3.5,.94-.62,2.02-1.22,3.24-1.73,1.22-.53,2.59-.89,4.02-1.25,2.89-.79,6.28-.62,9.59,.2,3.33,.79,6.36,2.02,9.06,3.2,1.35,.6,2.62,1.19,3.79,1.79,1.18,.57,2.26,1.14,3.24,1.68,1.97,1.04,3.52,1.96,4.59,2.6,.49,.3,.89,.54,1.23,.75,.28,.18,.42,.27,.41,.29Z"/>
        <path class="cls-19" d="M82.21,404.41s.34,.06,.91,.27c.58,.2,1.4,.55,2.38,1.03,1.96,.97,4.55,2.62,6.97,4.95,2.42,2.33,4.17,4.85,5.22,6.77,.53,.96,.91,1.76,1.13,2.34,.23,.57,.34,.89,.3,.9-.08,.04-.63-1.2-1.75-3.05-1.12-1.85-2.89-4.29-5.26-6.58-2.39-2.28-4.89-3.95-6.79-5-1.9-1.05-3.15-1.54-3.12-1.63Z"/>
        <path class="cls-19" d="M49.91,359.78s.22,.05,.62,.18c.45,.16,1.03,.37,1.75,.62,.78,.29,1.7,.63,2.76,1.02,1.08,.4,2.25,.99,3.57,1.57,5.26,2.39,12.25,6.4,19,12.11,3.33,2.9,6.34,5.85,8.86,8.73,2.51,2.89,4.63,5.6,6.29,7.97,1.67,2.36,2.93,4.33,3.8,5.69,.41,.64,.74,1.16,1,1.57,.23,.36,.34,.55,.32,.56s-.16-.16-.41-.5c-.26-.34-.63-.85-1.08-1.51-.92-1.33-2.23-3.26-3.93-5.58-1.69-2.33-3.83-5.01-6.35-7.87-2.53-2.85-5.53-5.77-8.84-8.65-6.71-5.67-13.63-9.71-18.82-12.17-1.31-.6-2.46-1.21-3.52-1.64-1.05-.42-1.96-.79-2.72-1.1-.7-.29-1.27-.53-1.72-.71-.39-.17-.59-.27-.59-.28Z"/>
        <path class="cls-19" d="M120.7,368.43s-.42-.02-1.16-.15c-.4-.07-.85-.16-1.34-.25-.52-.1-1.13-.1-1.79-.17-2.62-.19-6.45,.03-10.03,1.98-1.81,.91-3.32,2.15-4.56,3.39-1.26,1.23-2.21,2.51-2.93,3.63-1.46,2.24-1.92,3.86-2.01,3.83-.03,0,.05-.42,.3-1.14,.27-.71,.68-1.73,1.4-2.89,.69-1.16,1.64-2.49,2.91-3.77,1.25-1.29,2.8-2.57,4.66-3.51,3.7-2.01,7.65-2.18,10.31-1.89,.67,.09,1.29,.12,1.81,.25,.49,.12,.94,.24,1.34,.34,.73,.19,1.13,.31,1.12,.35Z"/>
        <path class="cls-19" d="M135.37,322.91s-.18,.13-.55,.34c-.42,.23-.96,.52-1.63,.88-1.42,.76-3.45,1.89-5.93,3.35-2.46,1.48-5.37,3.29-8.46,5.5-3.08,2.21-6.39,4.79-9.44,7.91-1.51,1.57-2.89,3.21-3.86,5-.96,1.84-1.87,3.61-2.71,5.31-1.69,3.4-3.06,6.54-4.06,9.23-.99,2.69-1.61,4.94-1.97,6.5-.37,1.56-.51,2.44-.56,2.44-.02,0,0-.22,.06-.65,.05-.42,.14-1.04,.3-1.83,.31-1.58,.87-3.86,1.82-6.58,.95-2.72,2.3-5.89,3.97-9.32,.83-1.72,1.74-3.5,2.69-5.34,1-1.87,2.41-3.53,3.94-5.13,3.09-3.16,6.43-5.74,9.54-7.94,3.12-2.2,6.05-3.99,8.55-5.43,2.51-1.42,4.58-2.5,6.02-3.21,.69-.33,1.24-.59,1.67-.8,.39-.18,.59-.26,.6-.25Z"/>
        <path class="cls-19" d="M94.44,367.11s-.14-.43-.29-1.23c-.17-.9-.38-2.03-.64-3.37-.56-2.84-1.41-6.75-2.76-10.95-1.34-4.2-2.98-7.86-4.17-10.5-.57-1.24-1.04-2.29-1.42-3.13-.33-.74-.5-1.16-.47-1.17,.03-.02,.26,.37,.65,1.08,.39,.71,.93,1.75,1.57,3.06,1.28,2.6,2.98,6.26,4.33,10.5,1.36,4.23,2.16,8.18,2.63,11.05,.23,1.44,.39,2.6,.48,3.41,.09,.81,.12,1.26,.09,1.26Z"/>
        <path class="cls-9" d="M93.39,333.9c-.37-5.51-2.16-10.87-4.75-15.76-7.09-13.4-20.4-23.33-35.26-26.29,10.88,16.22,21.76,32.44,32.64,48.65l4.22,8.68c2.88-4.72,3.51-9.77,3.15-15.29Z"/>
      </g>
      <g>
        <rect class="cls-15" x="64.3" y="429.79" width="75.91" height="13.45"/>
        <polygon class="cls-15" points="69.97 440.57 76.44 482.32 126.83 482.32 134.54 440.57 69.97 440.57"/>
        <path class="cls-19" d="M140.17,443.26c0,.15-17.12,.27-38.24,.27s-38.24-.12-38.24-.27,17.12-.27,38.24-.27,38.24,.12,38.24,.27Z"/>
      </g>
    </g>
  </g>
  <g id="Character">
    <g>
      <g>
        <g>
          <path class="cls-19" d="M262.91,130.36c-12.22-2.08-22.97,2.63-33.28,9.52-10.31,6.89-18.07,17.29-22.55,28.85-4.72,12.18-5.87,25.88-2.24,38.42,3.63,12.55,12.22,23.78,23.86,29.69,15.9,8.08,36.24,5.26,50.46-5.5,14.23-10.76,22.36-28.54,23.04-46.36,.47-12.28-2.46-24.84-9.33-35.03-6.86-10.19-17.81-17.81-29.97-19.59"/>
          <g>
            <path class="cls-19" d="M228.14,171.93c1.79-4.68,1.09-9.9,1.8-14.85,1.56-10.91,10.35-19.67,20.52-23.92,9.46-3.96,21.02-3.09,32.41,.59,7.81,2.53,15.17,6.93,20.38,13.28,6.91,8.42,9.35,20.32,6.3,30.79l-55.84-8.13c-5.23,4.33-10.58,8.72-16.92,11.14-1.86,.71-3.86,1.24-5.83,.93-1.97-.31-3.88-1.65-4.34-3.58-.51-2.11,.74-4.19,1.52-6.22Z"/>
            <path class="cls-10" d="M284.08,149.16l-48.75,10.33c-4.72,.31-8.41,4.19-8.5,8.91l.59,105.51c.04,7.21,2.46,14.2,6.87,19.9l4.65,6c10.6,13.67,32.07,12.29,40.17-2.99,.57-1.07,.96-2,1.12-2.76,.16-.95,.41-1.58,.46-2.38l.93-10.29c.47-9.39,.54-18.94,.54-18.85,0,0,19.95-2.52,25.06-28.23,2.54-12.78,2.71-33.9,2.3-51.18-.38-15.56-9.92-34.99-25.44-33.96Z"/>
            <g>
              <g>
                <path class="cls-19" d="M302.1,202.92c0,1.75-1.5,3.2-3.33,3.22-1.83,.03-3.31-1.37-3.3-3.12,0-1.75,1.5-3.2,3.33-3.22,1.83-.03,3.31,1.37,3.31,3.12Z"/>
                <path class="cls-19" d="M304.52,193.91c-.43,.42-2.87-1.54-6.44-1.67-3.56-.18-6.25,1.55-6.63,1.1-.18-.2,.27-.96,1.44-1.75,1.16-.78,3.1-1.51,5.32-1.42,2.22,.1,4.06,.99,5.1,1.87,1.06,.89,1.41,1.68,1.2,1.87Z"/>
              </g>
              <g>
                <path class="cls-19" d="M270.11,202.11c0,1.75-1.5,3.2-3.33,3.22-1.83,.03-3.31-1.37-3.3-3.12,0-1.75,1.5-3.2,3.33-3.22,1.83-.03,3.31,1.37,3.31,3.13Z"/>
                <path class="cls-19" d="M270.62,193.04c-.43,.42-2.87-1.54-6.44-1.67-3.56-.18-6.25,1.55-6.62,1.1-.18-.2,.26-.97,1.44-1.75,1.15-.78,3.1-1.51,5.32-1.42,2.22,.1,4.06,.99,5.1,1.87,1.06,.88,1.41,1.68,1.2,1.87Z"/>
              </g>
              <path class="cls-19" d="M281.33,220.19c0-.2,2.22-.5,5.84-.82,.91-.06,1.78-.21,1.96-.82,.24-.65-.1-1.65-.5-2.73-.77-2.24-1.58-4.59-2.43-7.05-3.36-10.03-5.75-18.26-5.35-18.39,.4-.13,3.46,7.89,6.82,17.92,.81,2.47,1.58,4.83,2.31,7.08,.31,1.05,.85,2.25,.33,3.6-.27,.67-.96,1.14-1.55,1.27-.59,.16-1.1,.15-1.56,.15-3.63,.05-5.87-.02-5.88-.22Z"/>
              <path class="cls-14" d="M282.16,262.52s-17.44,.45-34.28-10.58c0,0,8.01,18.24,34,16.83l.29-6.24Z"/>
              <path class="cls-14" d="M279.49,228.73c-1.22-1.75-3.43-2.77-5.67-2.61-1.56,.11-3.15,.79-4.14,2.02-.99,1.22-1.26,3.01-.45,4.24,.91,1.39,2.91,1.78,4.63,1.37,1.72-.42,3.23-1.48,4.67-2.55,.4-.29,.8-.6,1.06-1.02,.26-.41,.33-.97,.05-1.33"/>
              <path class="cls-19" d="M270.73,222.25c.58-.01,.44,3.86,3.65,6.74,3.2,2.89,7.35,2.61,7.36,3.16,.04,.25-.95,.72-2.69,.7-1.71,0-4.19-.65-6.15-2.42-1.96-1.76-2.74-4.05-2.81-5.64-.08-1.63,.38-2.57,.65-2.54Z"/>
            </g>
            <path class="cls-19" d="M270.42,182.44c-.39,.96-3.94,.36-8.14,.7-4.22,.26-7.64,1.35-8.16,.46-.23-.43,.39-1.32,1.79-2.2,1.39-.89,3.58-1.69,6.11-1.88,2.52-.18,4.81,.31,6.31,.99,1.51,.68,2.26,1.47,2.09,1.93Z"/>
            <path class="cls-19" d="M304.09,178.26c-.66,.79-3.09-.15-6.04-.31-2.95-.26-5.48,.33-6.03-.54-.24-.42,.19-1.22,1.31-1.94,1.11-.72,2.94-1.28,4.97-1.14,2.03,.14,3.76,.95,4.76,1.82,1.01,.87,1.32,1.72,1.03,2.11Z"/>
            <path class="cls-19" d="M219.21,164.4c5.05-14.85,27.12-35.07,42.74-33.67l24.68,15.48c-1.68,8.48-8.4,15.76-16.72,18.11-4.44,1.26-9.77,1.52-12.47,5.27-2.76,3.82-1.3,9.5-3.88,13.45-3.57,5.47-13.02,5.02-15.73,10.97-1.19,2.6-.66,5.74-1.89,8.31-1.64,3.43-10.5,7.65-14.1,6.43-3.6-1.22-3.49-7.4-4.61-10.65-1.92-5.57-1.02-8.42-.3-11.49,1.72-7.28-.13-15.12,2.28-22.21Z"/>
            <path class="cls-10" d="M232.47,212.02c.07-1.93-1.98-6.55-3.87-6.92-5.05-.99-14.22-.94-14.81,11.96-.8,17.63,17.06,14.8,17.12,14.29,.04-.39,1.32-12.68,1.56-19.33Z"/>
            <path class="cls-14" d="M225.83,224.42c-.07-.06-.32,.2-.85,.42-.52,.21-1.4,.33-2.3-.06-1.83-.77-3.27-3.8-3.21-6.98,.03-1.61,.43-3.12,1.06-4.36,.6-1.27,1.47-2.13,2.42-2.25,.94-.17,1.58,.42,1.77,.92,.21,.5,.09,.85,.18,.89,.05,.05,.39-.28,.28-1.01-.06-.35-.24-.78-.64-1.14-.41-.36-1.02-.57-1.68-.53-1.36,.03-2.64,1.23-3.33,2.59-.76,1.36-1.26,3.06-1.29,4.87-.05,3.56,1.62,6.96,4.13,7.82,1.22,.38,2.28,.05,2.83-.34,.57-.41,.68-.8,.62-.84Z"/>
          </g>
          <path class="cls-19" d="M281.5,140.87c1.62,7.18,12.53,16.38,17.32,21.97,9.14,10.66,10.94,14.2,10.85,38.04,4.31-8.23,7.62-16.3,7.29-25.59-.33-9.29-3.75-18.59-10.21-25.28-6.46-6.68-16.05-10.48-25.25-9.15"/>
        </g>
        <path class="cls-19" d="M237.33,120.79c-4.14-3.61-9.68-5.64-15.32-6.39-8.03-1.07-16.54,.43-23.26,4.63-6.73,4.2-11.49,11.17-12.13,18.66-.63,7.49,3.11,15.29,9.86,19.45-3.51,4.32-8.18,7.82-13.48,10.09,1.73,2.05,4.61,3.04,7.42,3.19,2.81,.15,5.59-.43,8.33-1-1.47,2.95-4.12,5.38-7.32,6.72,4.58,.64,9.3-.26,13.55-1.98,4.24-1.72,8.06-4.23,11.67-6.92,12.48-9.27,19.08-16.89,26.75-29.89,.63-5.23-1.94-12.96-6.07-16.57Z"/>
        <circle class="cls-9" cx="225.85" cy="233.9" r="7.67"/>
        <g>
          <path class="cls-19" d="M212.68,160.64c8.18-15.43,19.79-24.51,30.82-28.17"/>
          <path class="cls-9" d="M243.5,132.47s-.54,.27-1.54,.67c-1,.41-2.43,1.03-4.15,1.91-3.43,1.75-7.93,4.68-12.19,8.74-4.26,4.06-7.5,8.33-9.62,11.55-1.04,1.63-1.88,2.94-2.41,3.88-.55,.93-.88,1.43-.91,1.42-.03-.02,.23-.56,.73-1.52,.48-.97,1.28-2.32,2.28-3.98,2.05-3.29,5.27-7.63,9.57-11.73,4.3-4.09,8.88-7.02,12.38-8.69,1.75-.85,3.22-1.42,4.24-1.77,1.03-.34,1.6-.51,1.62-.48Z"/>
        </g>
        <path class="cls-9" d="M202.37,174.17s.08,0,.23,.05c.18,.05,.4,.11,.66,.18,.58,.18,1.44,.4,2.55,.65,2.23,.48,5.53,.97,9.62,.85,4.08-.11,8.93-.86,14.09-2.5,5.16-1.62,10.59-4.1,16.08-7.08,5.48-3,10.63-6.02,15.2-8.94,4.56-2.93,8.48-5.84,11.54-8.55,3.08-2.7,5.32-5.15,6.78-6.91,.75-.87,1.28-1.58,1.65-2.06,.17-.22,.31-.39,.43-.54,.1-.12,.15-.18,.16-.17,0,0-.03,.07-.12,.2-.1,.15-.23,.34-.39,.57-.35,.5-.85,1.23-1.58,2.12-1.42,1.81-3.63,4.31-6.7,7.06-3.05,2.76-6.97,5.72-11.53,8.68-4.57,2.95-9.71,5.98-15.21,8.99-5.51,2.99-10.98,5.48-16.19,7.08-5.2,1.62-10.1,2.35-14.22,2.41-4.13,.07-7.44-.48-9.67-1.03-1.11-.29-1.97-.54-2.54-.75-.26-.09-.47-.17-.65-.23-.14-.06-.22-.09-.21-.1Z"/>
      </g>
      <path class="cls-10" d="M352.24,336l29.5,53.88,43.21-24.17,21.01,6.93s-53.02,57.48-61.62,60.41c-8.6,2.93-24.89,3.46-34.2-8.19-8.48-10.61-33.16-66.33-33.16-66.33l35.25-22.54Z"/>
      <g>
        <path class="cls-9" d="M473.68,300.82c-.77-.95-1.98-1.43-3.19-1.26l-20.55,2.83c-1.8,.28-3.4,1.31-4.39,2.84l-42.67,65.59,3.28,1.83,22.72-.71,45.45-70.31-.65-.8Z"/>
        <path class="cls-1" d="M459.13,309.34c.44,.38,1.21,.22,1.72-.36,.51-.58,.57-1.37,.13-1.75-.44-.38-1.21-.22-1.72,.36-.51,.58-.57,1.37-.13,1.75Z"/>
        <path class="cls-19" d="M474.32,301.62c.01,.08-1.4,.36-3.97,.79-2.78,.43-6.45,1-10.89,1.69-2.32,.34-4.84,.71-7.53,1.1-1.29,.12-2.44,.79-3.18,1.87-.79,1.22-1.6,2.48-2.43,3.77-3.36,5.18-7.04,10.85-10.9,16.8-7.76,11.9-14.85,22.64-20.03,30.37-2.52,3.72-4.61,6.8-6.19,9.13-1.48,2.14-2.34,3.3-2.41,3.25-.07-.05,.65-1.3,2.01-3.52,1.49-2.38,3.47-5.53,5.86-9.34,4.99-7.86,11.96-18.67,19.72-30.57,3.89-5.93,7.59-11.58,10.98-16.74,.85-1.28,1.68-2.54,2.49-3.76,.9-1.35,2.48-2.17,3.91-2.27,2.7-.34,5.23-.66,7.56-.96,4.47-.53,8.16-.97,10.96-1.3,2.59-.28,4.03-.39,4.04-.31Z"/>
      </g>
      <g>
        <path class="cls-10" d="M451.53,325.07s-1.83-.33-2.83,4.68c-1,5.01-4.23,19.38-4.23,19.38l-9.6-5.1-12.01,1.56s-2.62,2.42-.7,3.73c1.92,1.31,9.51,2.67,9.51,2.67l5.6,8.05-16.06-7.74s-5.36,1.4-3.79,4.67c1.57,3.27,12.4,13.5,12.4,13.5l-8.05-.61-9.57-5.81s-2.94,.13-1.84,2.63c1.1,2.5,11.05,11.54,11.05,11.54l12.07,5.86s6.59-.52,7.22-2.45c.63-1.94,.79-4.69,.79-4.69,0,0,3.5-.94,4.15-2.64,.65-1.7,.23-4.38,.23-4.38,0,0,5.49,.96,6.17-2.1,.68-3.06,.11-9.09-.44-11.44-.55-2.35,2.34-24.23,2.12-24.89-.22-.66,1.26-7.87-2.18-6.42Z"/>
        <path class="cls-14" d="M441.11,381.66c.04,.14-1.13,.65-3.15,.98-2.01,.33-4.9,.36-7.95-.36-3.06-.73-5.62-2.06-7.26-3.26-1.66-1.2-2.47-2.18-2.37-2.29,.23-.31,4.05,3,9.92,4.35,5.85,1.44,10.75,.21,10.81,.59Z"/>
        <path class="cls-14" d="M438.26,377.33c-.19,.28-2.33-.84-4.61-2.72-2.29-1.87-3.8-3.75-3.57-3.99,.24-.25,2.11,1.2,4.35,3.03,2.23,1.84,4.02,3.39,3.82,3.67Z"/>
        <path class="cls-14" d="M444.6,366.92c-.18,.28-2.31-.82-4.45-2.8-2.15-1.98-3.4-4.01-3.14-4.21,.27-.22,1.91,1.4,3.98,3.3,2.06,1.91,3.8,3.42,3.61,3.71Z"/>
        <path class="cls-14" d="M451.28,358.53c-.33,.14-1.54-2.13-3.45-4.59-1.89-2.48-3.77-4.24-3.55-4.52,.19-.27,2.52,1.14,4.53,3.77,2.02,2.62,2.78,5.23,2.47,5.35Z"/>
      </g>
      <path class="cls-15" d="M356.28,337.04s-19-31.68-24.28-38.09c-4.94-6.01-11.31-9.55-15.57-11.41-2.37-1.03-4.85-1.75-7.4-2.19l-27.33-6.05s-.24,12.4-19.8,13.12c-22.5,.83-35.79-19.39-35.79-19.39,0,0-31.57,4.88-39.13,8.77-7.55,3.89-19.43,8.82-25.96,41.54l-4.59,32,54.44,5.03,5.21,80.9,27,18.8s74.85,19.46,79.63,20.75c4.78,1.29,6.37-120.45,6.37-120.45,0,0,19.23-12.43,27.18-23.33Z"/>
      <path class="cls-19" d="M210.55,323.73c.14,0,.45,9.54,.68,21.32,.23,11.78,.3,21.32,.16,21.33-.14,0-.45-9.54-.68-21.32-.23-11.77-.3-21.32-.16-21.33Z"/>
      <path class="cls-19" d="M319.85,323.41s.12,.15,.31,.48c.21,.37,.48,.84,.8,1.41,.34,.61,.76,1.37,1.19,2.28,.43,.9,.97,1.91,1.44,3.08,1.04,2.3,2.08,5.12,3.06,8.32,.93,3.21,1.73,6.8,2.25,10.61,1.06,7.65,.85,14.65,.57,19.67-.17,2.51-.33,4.55-.5,5.94-.08,.65-.14,1.19-.19,1.61-.05,.37-.08,.56-.1,.56s-.02-.2,0-.57c.02-.43,.05-.96,.09-1.62,.1-1.4,.21-3.44,.33-5.95,.18-5.02,.34-11.99-.72-19.58-.52-3.79-1.3-7.36-2.2-10.55-.95-3.18-1.95-6-2.94-8.31-.45-1.17-.97-2.19-1.37-3.1-.4-.91-.79-1.68-1.11-2.31-.29-.59-.52-1.07-.71-1.46-.16-.34-.23-.52-.22-.53Z"/>
      <path class="cls-19" d="M288.52,280.81s.1,1.24-.34,3.43c-.47,2.15-1.61,5.33-4.41,8.23-2.74,2.92-7.09,5.3-12.24,6.42-5.15,1.11-11.07,1.18-17-.15-5.95-1.26-11.31-3.63-15.84-6.26-4.55-2.64-8.28-5.59-11.14-8.35-2.86-2.76-4.85-5.3-6.15-7.1-.64-.9-1.07-1.65-1.39-2.14-.31-.5-.46-.76-.45-.77,.02,0,.2,.24,.53,.71,.34,.47,.8,1.2,1.46,2.08,1.34,1.76,3.36,4.24,6.23,6.95,2.87,2.7,6.6,5.61,11.13,8.2,4.52,2.58,9.83,4.92,15.71,6.16,5.86,1.32,11.71,1.26,16.79,.19,5.08-1.08,9.36-3.38,12.08-6.21,2.78-2.81,3.95-5.91,4.48-8.02,.25-1.07,.37-1.92,.43-2.5,.05-.58,.09-.88,.11-.88Z"/>
      <path class="cls-10" d="M318.13,455.95l-102.5-22.31-4.74-73.27-45.58-4.21s1.69,50.09,3.44,64.98c2.52,21.42,15.18,50.64,22.59,56.48,7.41,5.84,131.4,3.21,131.4,3.21l-4.6-24.87Z"/>
      <path class="cls-10" d="M376.31,469.23c-.72,1.43-2.22,2.36-3.82,2.22-.32-.03-.65-.09-.99-.2-2.27-.73-2.05-5.34-2.05-5.34l-10.86-1.77s-14.13,9.11-19.15,15.15c-5.03,6.04-17.85,1.15-17.85,1.15l-4.44-23.15,19.99-18.08s-1.23,1.08,.15-2.31c1.38-3.38,7.66-2.1,7.66-2.1,.98-1.67,5.08-2.27,5.08-2.27l17.54,2.02c3.61,.42,6.84,2.45,8.79,5.52l7.42,11.74s3.92,8.45,3.29,10.42c-.95,2.97-4.09,2.31-4.09,2.31,0,0-.86,5.56-2.32,5.75s-4.34-1.04-4.34-1.04h0Z"/>
      <path class="cls-14" d="M338.98,452.6c.02,.18,2.35-.03,6.1,.13,3.74,.18,8.91,.84,14.31,2.68,2.7,.91,5.19,2.01,7.38,3.15,2.12,1.19,4.33,2.17,5.01,3.72,.34,.76,.19,1.52-.19,2.09-.37,.56-.88,.94-1.32,1.12-.92,.38-1.52,.12-1.54,.23-.04,.03,.54,.48,1.68,.19,.55-.15,1.18-.51,1.69-1.17,.52-.62,.82-1.73,.41-2.74-.38-1.02-1.25-1.81-2.18-2.46-.95-.63-1.95-1.27-3.07-1.87-2.21-1.23-4.75-2.38-7.51-3.31-5.53-1.88-10.85-2.43-14.65-2.41-3.82,.04-6.13,.54-6.11,.66Z"/>
      <path class="cls-14" d="M337.76,463.79c.02,.33,7.16,.03,15.93,.55,8.77,.48,15.83,1.59,15.89,1.26,.03-.14-1.71-.61-4.57-1.11-2.85-.5-6.84-1.01-11.26-1.27-4.42-.25-8.43-.19-11.33-.02-2.89,.18-4.67,.44-4.66,.58Z"/>
      <path class="cls-14" d="M376.21,468.79c.06-.01,.14-.66,.22-1.87,.07-1.21,.15-2.96,.01-5.14-.07-1.09-.19-2.28-.49-3.56-.28-1.28-.89-2.63-1.72-3.82-1.58-2.39-3.78-4.87-6.57-6.73-2.78-1.84-5.57-3.39-8.39-4.24-2.8-.85-5.41-1.06-7.58-1.15-2.17-.08-3.92-.03-5.12,.02-1.21,.05-1.87,.11-1.87,.19,0,.18,2.67,.27,6.95,.58,2.13,.2,4.66,.48,7.32,1.35,2.63,.84,5.37,2.4,8.06,4.18,2.7,1.8,4.75,4.07,6.36,6.39,1.7,2.21,2.01,4.75,2.27,6.86,.42,4.25,.31,6.94,.56,6.93Z"/>
      <path class="cls-14" d="M350.88,436.97c0,.17,2.62,.24,6.81,.72,4.04,.62,10.49,.91,14.17,6.48,3.98,5.06,7.37,9.84,8.85,13.76,1.57,3.89,1.43,6.59,1.66,6.57,.06,0,.16-.66,.1-1.86-.05-1.2-.31-2.94-1.02-4.98-1.35-4.14-4.71-9.09-8.72-14.18-1.02-1.28-2.13-2.49-3.41-3.45-1.28-.98-2.76-1.54-4.13-1.94-2.77-.78-5.31-1.01-7.43-1.18-4.26-.28-6.89-.07-6.89,.07Z"/>
      <path class="cls-14" d="M343.27,475.55s.38-.25,1.04-.8c.75-.6,1.72-1.39,2.94-2.36,2.59-2,6.44-4.85,11.53-7.94l-.25,.05c3.24,.55,6.89,1.17,10.85,1.85l-.37-.46c-.02,.89,.03,1.75,.2,2.65,.18,.88,.46,1.84,1.23,2.61,.4,.38,.97,.6,1.44,.66,.48,.12,1.01,.17,1.53,.09,1.04-.15,2.01-.69,2.7-1.5,.18-.2,.33-.42,.47-.64l.1-.17,.05-.09,.02-.04h0c.14-.06-1.21,.44-.64,.23h.01s.02,.01,.02,.01l.34,.14c.46,.18,.92,.35,1.4,.5,.48,.15,.97,.28,1.49,.37,.26,.04,.52,.08,.81,.09,.26,.01,.58,.02,1.01-.19,.61-.44,.83-.95,1.06-1.44,.22-.49,.39-.99,.54-1.49,.3-1.01,.52-2.02,.7-3.07l-.63,.44c1.41,.25,3.07-.09,4.05-1.38,.44-.6,.8-1.34,.75-2.19-.04-.76-.21-1.43-.38-2.1-.76-2.66-1.83-5.22-2.99-7.81v-.03s-.03-.03-.03-.03c-1.26-2-2.6-4.12-3.95-6.26-.84-1.33-1.68-2.66-2.51-3.97-.83-1.27-1.58-2.7-2.75-3.84-1.13-1.14-2.48-2.03-3.94-2.62-1.45-.62-3.06-.78-4.47-.93-5.81-.65-11.35-1.28-16.53-1.86h-.07s-.06,0-.06,0c-1.02,.17-1.97,.41-2.9,.76-.91,.37-1.87,.78-2.52,1.76l.61-.19c-1.86-.76-4.01-.77-5.63,.31-1.63,1.07-2.39,2.81-2.79,4.44l.13-.23c-5.74,5.16-10.43,9.38-13.78,12.39-1.54,1.42-2.78,2.56-3.71,3.42-.84,.79-1.27,1.22-1.24,1.25,.03,.03,.51-.34,1.4-1.07,.97-.82,2.25-1.9,3.86-3.25,3.41-2.95,8.18-7.07,14.02-12.12l.09-.08,.04-.15c.37-1.44,1.11-3.02,2.46-3.86,1.31-.88,3.19-.86,4.75-.21l.38,.16,.23-.35c.38-.59,1.21-1.02,2.04-1.33,.85-.31,1.78-.54,2.7-.69h-.13c5.18,.61,10.71,1.27,16.52,1.95,1.48,.16,2.86,.3,4.19,.87,1.32,.53,2.54,1.34,3.56,2.37,1.03,1,1.74,2.34,2.6,3.66,.83,1.31,1.66,2.64,2.51,3.97,1.36,2.14,2.7,4.26,3.96,6.26l-.03-.06c1.14,2.53,2.22,5.1,2.95,7.63,.17,.63,.33,1.28,.35,1.85,.06,.5-.19,1.04-.52,1.49-.63,.89-1.9,1.17-2.97,1l-.55-.09-.09,.53c-.16,.99-.37,2-.65,2.94-.26,.89-.65,1.98-1.14,2.35-.02,.01-.21,.07-.44,.05-.21,0-.44-.03-.66-.07-.45-.08-.91-.19-1.36-.33-.45-.14-.9-.29-1.33-.46l-.32-.13h-.02s0-.01,0-.01c.57-.21-.78,.28-.65,.23h0s-.02,.04-.02,.04l-.04,.07-.08,.14c-.11,.18-.23,.35-.37,.51-.54,.64-1.3,1.07-2.09,1.19-.4,.07-.79,.03-1.19-.07-.43-.06-.72-.18-.99-.42-1.03-1.08-1.18-3-1.19-4.54v-.4s-.37-.06-.37-.06c-3.97-.62-7.63-1.19-10.88-1.7l-.14-.02-.11,.07c-5.09,3.2-8.87,6.15-11.4,8.26-1.26,1.06-2.2,1.92-2.82,2.52-.62,.6-.93,.92-.9,.95Z"/>
    </g>
    <g>
      <g>
        <path class="cls-13" d="M524.79,367.7l-135.01,1.1c-4.38,0-8.56,2.1-9.22,6.43l-14.76,98.4h-69.54c-2.24,0-4.05,1.82-4.05,4.05s1.82,4.05,4.05,4.05h222.11l15.18-103.86c.81-5.36-3.34-10.19-8.76-10.19Z"/>
        <path class="cls-19" d="M524.79,367.7s.73-.09,2.13,.2c1.35,.31,3.48,1.15,5.16,3.42,.84,1.11,1.47,2.6,1.67,4.31,.22,1.74-.28,3.57-.5,5.55-.57,3.98-1.22,8.56-1.95,13.7-2.97,20.63-7.25,50.36-12.52,86.92l-.05,.36h-.36c-57.47,.03-133,.08-215.48,.13h-5.8c-.89,.04-2.14-.01-3.07-.58-.96-.53-1.7-1.41-2.08-2.44-.81-2.06,.16-4.58,2.1-5.61,.93-.56,2.16-.61,3.04-.57h2.86c7.61,0,15.14,0,22.57,0,14.86,0,29.34,0,43.29,.01l-.52,.45c5.31-35.24,10.27-68.12,14.71-97.61,.15-1.87,1-3.89,2.5-5.14,1.47-1.3,3.32-1.99,5.16-2.28,1.88-.29,3.67-.13,5.44-.19,1.78-.01,3.55-.02,5.3-.04,7.01-.05,13.79-.09,20.33-.14,13.07-.08,25.15-.16,36.12-.23,21.92-.11,39.4-.2,51.43-.26,5.98-.01,10.6-.02,13.76-.02,1.54,0,2.72,.01,3.55,.02,.8,0,1.21,.04,1.21,.04,0,0-.41,.03-1.21,.06-.83,.02-2.01,.04-3.55,.07-3.16,.05-7.78,.11-13.76,.2-12.03,.13-29.51,.33-51.43,.57-10.97,.11-23.06,.23-36.12,.36-6.53,.06-13.32,.13-20.33,.19-1.75,.02-3.52,.03-5.3,.05-1.78,.06-3.6-.08-5.31,.19-1.72,.27-3.42,.92-4.71,2.08-1.33,1.16-2.03,2.77-2.2,4.61-4.4,29.5-9.31,62.38-14.56,97.63l-.07,.45h-.45c-13.95,0-28.43,0-43.29,.01-7.43,0-14.96,0-22.57,0h-2.86c-1.01-.03-1.76,.01-2.52,.44-1.48,.78-2.22,2.71-1.6,4.28,.28,.78,.85,1.46,1.58,1.86,.76,.43,1.52,.47,2.54,.44,1.93,0,3.86,0,5.8,0,82.48,.05,158.01,.09,215.48,.13l-.41,.36c5.42-36.53,9.82-66.25,12.88-86.87,.77-5.14,1.46-9.72,2.06-13.69,.24-1.99,.75-3.81,.55-5.47-.17-1.66-.77-3.11-1.57-4.2-1.6-2.23-3.67-3.09-4.99-3.44-1.36-.33-2.1-.27-2.1-.32Z"/>
      </g>
      <circle class="cls-1" cx="451.56" cy="423.47" r="8.45"/>
      <path class="cls-19" d="M371.27,480.84c.19,.03,4.49-25.03,9.6-55.96,5.11-30.94,9.1-56.05,8.91-56.08-.19-.03-4.49,25.02-9.6,55.96-5.11,30.93-9.1,56.04-8.91,56.07Z"/>
    </g>
  </g>
</svg>